<svg width="18" height="18" viewBox="0 0 18 18" fill="none" xmlns="http://www.w3.org/2000/svg">
<path d="M8.0998 1.79999C7.14503 1.79999 6.22935 2.17927 5.55422 2.8544C4.87909 3.52953 4.4998 4.44521 4.4998 5.39999C4.4998 6.35477 4.87909 7.27044 5.55422 7.94557C6.22935 8.6207 7.14503 8.99999 8.0998 8.99999C9.05458 8.99999 9.97026 8.6207 10.6454 7.94557C11.3205 7.27044 11.6998 6.35477 11.6998 5.39999C11.6998 4.44521 11.3205 3.52953 10.6454 2.8544C9.97026 2.17927 9.05458 1.79999 8.0998 1.79999ZM3.6079 9.89999C3.37084 9.89892 3.13591 9.94469 2.91659 10.0347C2.69726 10.1247 2.49788 10.2571 2.32987 10.4243C2.16187 10.5916 2.02856 10.7904 1.93759 11.0093C1.84663 11.2282 1.7998 11.4629 1.7998 11.7C1.7998 13.2219 2.5495 14.3694 3.7213 15.1173C4.8751 15.8526 6.4303 16.2 8.0998 16.2C8.47 16.2 8.833 16.1829 9.1888 16.1487C8.48243 15.2705 8.09811 14.177 8.0998 13.05C8.0998 11.853 8.5246 10.755 9.2311 9.89999H3.6079ZM9.5713 12.528C9.80371 12.4685 10.0219 12.3632 10.213 12.2183C10.4042 12.0733 10.5644 11.8916 10.6843 11.6838C10.8042 11.476 10.8813 11.2464 10.9112 11.0084C10.9411 10.7703 10.9231 10.5288 10.8583 10.2978L10.7188 9.79649C10.948 9.62069 11.1943 9.47159 11.4577 9.34919L11.7619 9.67139C11.9301 9.84986 12.133 9.99209 12.3582 10.0893C12.5833 10.1866 12.826 10.2368 13.0712 10.2368C13.3165 10.2369 13.5591 10.1869 13.7844 10.0898C14.0096 9.99273 14.2126 9.85065 14.3809 9.67229L14.6725 9.36269C14.9413 9.48989 15.1918 9.64529 15.424 9.82889L15.3106 10.2096C15.2404 10.4445 15.2189 10.6913 15.2475 10.9348C15.2761 11.1784 15.3541 11.4135 15.4768 11.6258C15.5995 11.8381 15.7643 12.023 15.9611 12.1694C16.1578 12.3157 16.3824 12.4203 16.621 12.4767L16.9351 12.5505C16.9712 12.8544 16.9742 13.1613 16.9441 13.4658L16.5301 13.5711C16.2975 13.6304 16.0791 13.7357 15.8878 13.8807C15.6965 14.0257 15.5362 14.2074 15.4162 14.4153C15.2962 14.6232 15.219 14.853 15.1891 15.0912C15.1592 15.3294 15.1773 15.5711 15.2422 15.8022L15.3826 16.3026C15.1528 16.479 14.9062 16.6284 14.6428 16.7508L14.3386 16.4286C14.1705 16.2502 13.9677 16.108 13.7426 16.0108C13.5176 15.9136 13.2751 15.8633 13.0299 15.8632C12.7848 15.863 12.5422 15.9129 12.317 16.0098C12.0919 16.1067 11.8889 16.2486 11.7205 16.4268L11.428 16.7364C11.1605 16.6102 10.9084 16.4538 10.6765 16.2702L10.7908 15.8904C10.8612 15.6554 10.8827 15.4085 10.8542 15.1649C10.8257 14.9213 10.7477 14.686 10.625 14.4736C10.5023 14.2612 10.3374 14.0762 10.1406 13.9298C9.94379 13.7834 9.71912 13.6788 9.4804 13.6224L9.1654 13.5486C9.12937 13.245 9.12635 12.9384 9.1564 12.6342L9.5713 12.528ZM13.9498 13.05C13.9498 12.8113 13.855 12.5824 13.6862 12.4136C13.5174 12.2448 13.2885 12.15 13.0498 12.15C12.8111 12.15 12.5822 12.2448 12.4134 12.4136C12.2446 12.5824 12.1498 12.8113 12.1498 13.05C12.1498 13.2887 12.2446 13.5176 12.4134 13.6864C12.5822 13.8552 12.8111 13.95 13.0498 13.95C13.2885 13.95 13.5174 13.8552 13.6862 13.6864C13.855 13.5176 13.9498 13.2887 13.9498 13.05Z" fill="white"/>
</svg>
